# xmcd
#
# Track frame offsets: 
#        150
#        34415
#        53762
#        96245
#        144740
#        160720
#
# Disc length: 2412 seconds
#
# Revision: 2
# Processed by: cddbd v1.5.2PL0 Copyright (c) Steve Scherf et al.
# Submitted via: ExactAudioCopy v0.95b4
#
DISCID=4d096a06
DTITLE=Herbie Mann - Just Wailin'
DYEAR=1958
DGENRE=Jazz
TTITLE0=Minor Groove
TTITLE1=Blue Echo
TTITLE2=Blue Dip
TTITLE3=Gospel Truth
TTITLE4=Jumpin' With Symphony Sid
TTITLE5=Trinidad
EXTD=YEAR: 1958
EXTT0=
EXTT1=
EXTT2=
EXTT3=
EXTT4=
EXTT5=
PLAYORDER=
